<?xml version="1.0" encoding="UTF-8" standalone="no"?>
<!DOCTYPE svg PUBLIC "-//W3C//DTD SVG 1.1//EN" "http://www.w3.org/Graphics/SVG/1.1/DTD/svg11.dtd">
<svg width="100%" height="100%" viewBox="0 0 256 256" version="1.1" xmlns="http://www.w3.org/2000/svg" xmlns:xlink="http://www.w3.org/1999/xlink" xml:space="preserve" xmlns:serif="http://www.serif.com/" style="fill-rule:evenodd;clip-rule:evenodd;stroke-linejoin:round;stroke-miterlimit:2;">
    <g transform="matrix(1,0,0,1,-291,0)">
        <g id="Layer1">
        </g>
        <g id="Artboard2" transform="matrix(1,0,0,1,-0.921874,0)">
            <rect x="291.922" y="0" width="256" height="256" style="fill:none;"/>
            <g transform="matrix(1.10864,0,0,1.10864,284.954,-12.7848)">
                <path d="M153.059,98.703L153.059,203.352C153.059,216.417 142.451,227.025 129.386,227.025L71.315,227.025C58.25,227.025 47.642,216.417 47.642,203.352L47.642,93.409C47.642,80.917 57.341,70.676 69.61,69.797C70.386,69.741 71.165,69.773 71.934,69.892C79.421,71.054 115.284,76.924 137.772,85.109C140.998,86.283 144.949,88.215 147.481,89.528C150.908,91.305 153.059,94.843 153.059,98.703ZM132.388,105.202C131.811,104.958 131.243,104.73 130.702,104.533C110.842,97.304 79.872,92.081 70.339,90.567C69.16,90.971 68.313,92.093 68.313,93.409L68.313,203.352C68.313,205.008 69.658,206.354 71.315,206.354L129.386,206.354C131.042,206.354 132.388,205.008 132.388,203.352L132.388,105.202Z"/>
            </g>
            <g transform="matrix(1.10864,0,0,1.10864,332.385,-60.216)">
                <path d="M153.059,98.703L153.059,203.352C153.059,216.417 142.451,227.025 129.386,227.025L71.315,227.025C58.25,227.025 47.642,216.417 47.642,203.352L47.642,93.409C47.642,80.917 57.341,70.676 69.61,69.797C70.386,69.741 71.165,69.773 71.934,69.892C79.421,71.054 115.284,76.924 137.772,85.109C140.998,86.283 144.949,88.214 147.481,89.527C150.908,91.304 153.059,94.843 153.059,98.703ZM132.388,105.202C131.811,104.957 131.243,104.73 130.702,104.533C110.842,97.304 79.872,92.081 70.339,90.567C69.16,90.971 68.313,92.093 68.313,93.409L68.313,203.352C68.313,205.008 69.658,206.354 71.315,206.354L129.386,206.354C131.042,206.354 132.388,205.008 132.388,203.352L132.388,105.202Z"/>
            </g>
        </g>
    </g>
</svg>
