<svg xmlns="http://www.w3.org/2000/svg" xml:space="preserve" viewBox="0 0 256 256" class="base"><path class="doc doc--first" d="M162.72 96.641V212.66c0 14.485-11.761 26.245-26.245 26.245h-64.38c-14.485 0-26.245-11.76-26.245-26.245V90.772c0-13.849 10.753-25.203 24.355-26.177.86-.062 1.723-.027 2.576.105 8.3 1.289 48.06 7.796 72.99 16.87 3.577 1.302 7.957 3.444 10.764 4.9a11.458 11.458 0 0 1 6.184 10.171Zm-22.917 7.205c-.64-.27-1.27-.523-1.87-.741C115.917 95.09 81.582 89.3 71.014 87.62a3.332 3.332 0 0 0-2.246 3.151V212.66a3.33 3.33 0 0 0 3.328 3.328h64.38a3.33 3.33 0 0 0 3.328-3.328V103.846Z"/><path class="doc doc--second" d="M210.15 49.21v116.018c0 14.485-11.76 26.245-26.244 26.245h-64.38c-14.485 0-26.245-11.76-26.245-26.245V43.341c0-13.85 10.753-25.203 24.355-26.177.86-.062 1.723-.027 2.576.105 8.3 1.288 48.06 7.796 72.99 16.87 3.577 1.302 7.957 3.443 10.764 4.898a11.46 11.46 0 0 1 6.184 10.173Zm-22.916 7.205c-.64-.271-1.27-.523-1.87-.742-22.017-8.014-56.352-13.804-66.92-15.483a3.332 3.332 0 0 0-2.246 3.151v121.887a3.33 3.33 0 0 0 3.328 3.328h64.38a3.33 3.33 0 0 0 3.328-3.328V56.415Z"/></svg>
