<?xml version="1.0" encoding="UTF-8" standalone="no"?>
<!DOCTYPE svg PUBLIC "-//W3C//DTD SVG 1.1//EN" "http://www.w3.org/Graphics/SVG/1.1/DTD/svg11.dtd">
<svg width="100%" height="100%" viewBox="0 0 60 60" version="1.1" xmlns="http://www.w3.org/2000/svg" xmlns:xlink="http://www.w3.org/1999/xlink" xml:space="preserve" xmlns:serif="http://www.serif.com/" style="fill-rule:evenodd;clip-rule:evenodd;stroke-linejoin:round;stroke-miterlimit:2;">
    <g transform="matrix(1,0,0,1,-90,0)">
        <g id="Artboard1" transform="matrix(1,0,0,1,90,0)">
            <rect x="0" y="0" width="60" height="60" style="fill:none;"/>
            <g transform="matrix(1,0,0,1,-6.2646,-5.06718)">
                <path d="M15.111,24.04C10.514,23.593 6.917,19.713 6.917,15C6.917,9.987 10.987,5.917 16,5.917C21.013,5.917 25.083,9.987 25.083,15C25.083,19.198 22.229,22.735 18.356,23.774L22.073,33.438L37.51,33.438L49.927,33.438L53.698,23.633C50.069,22.442 47.446,19.025 47.446,15C47.446,9.987 51.516,5.917 56.529,5.917C61.542,5.917 65.613,9.987 65.613,15C65.613,19.897 61.728,23.895 56.875,24.077L52.458,35.561C52.226,36.164 51.647,36.563 51,36.563L37.51,36.563L37.51,46.136C41.935,46.744 45.348,50.544 45.348,55.134C45.348,60.148 41.278,64.218 36.265,64.218C31.251,64.218 27.181,60.148 27.181,55.134C27.181,50.765 30.273,47.113 34.385,46.246L34.385,36.563L21,36.563C20.353,36.562 19.774,36.164 19.542,35.561L15.111,24.04ZM16,10.083C13.286,10.083 11.083,12.286 11.083,15C11.083,17.714 13.286,19.917 16,19.917C18.714,19.917 20.917,17.714 20.917,15C20.917,12.286 18.714,10.083 16,10.083ZM56.529,10.083C53.816,10.083 51.613,12.286 51.613,15C51.613,17.714 53.816,19.917 56.529,19.917C59.243,19.917 61.446,17.714 61.446,15C61.446,12.286 59.243,10.083 56.529,10.083ZM36.265,50.218C33.551,50.218 31.348,52.421 31.348,55.134C31.348,57.848 33.551,60.051 36.265,60.051C38.978,60.051 41.181,57.848 41.181,55.134C41.181,52.421 38.978,50.218 36.265,50.218Z"/>
            </g>
        </g>
    </g>
</svg>
