<svg xmlns="http://www.w3.org/2000/svg" viewBox="0 0 300 52"><path d="M0 52c2.019-7.488 3.903-15.045 6.595-26.07C9.354 14.56 11.17 6.796 12.584 0h25.1a333.471 333.471 0 0 0-.066 16.71c-.135 2.357-.337 5.615-.539 8.735h.27c1.345-3.189 2.691-6.378 3.768-8.736C44.212 10.47 47.173 4.437 49.125 0H73.35c-1.75 6.795-3.701 14.56-6.46 25.93-2.692 11.025-4.51 18.582-6.057 26.07H41.79c1.817-6.24 3.095-10.955 4.845-17.68.74-3.05 1.817-6.656 2.894-10.192l-.404-.07c-1.817 3.883-3.701 7.627-5.114 10.193L34.117 52h-8.883l-1.547-18.096c-.135-2.565-.135-6.31-.202-10.053l-.337.069c-.673 3.536-1.211 6.864-2.019 10.4A678.172 678.172 0 0 0 17.16 52H0ZM119.332 52h-22.41c.472-2.01 1.01-5.339 1.616-9.36H88.444c-1.346 3.952-2.423 7.28-2.961 9.36H63.747c6.325-13.104 20.12-45.205 22.745-52h34.657c-.404 6.933-2.019 38.827-1.817 52ZM92.683 30.853H100.153a395.2 395.2 0 0 0 1.346-14.005c0-2.843.336-6.17.605-8.875h-.403a262.23 262.23 0 0 1-3.634 8.944c-1.817 4.368-3.634 9.222-5.384 13.936ZM149.291 52h-27.456c1.951-7.35 3.768-14.907 6.46-25.93 2.692-11.025 4.576-18.998 6.124-26.07h25.303c16.823 0 24.024 6.24 18.775 27.941C173.786 47.285 166.182 52 149.291 52Zm-3.163-15.53c1.077.069 2.221.069 3.432.069 4.374 0 6.595-1.526 8.748-10.331 2.558-10.608.875-12.48-3.095-12.48-1.211 0-2.355 0-3.567.07a1001.874 1001.874 0 0 0-3.028 11.994c-1.077 4.437-1.884 7.835-2.49 10.677ZM210.555 52h-33.648c1.077-4.09 3.903-14.907 6.528-26 2.826-11.44 5.114-21.008 6.056-26h21.938c-1.009 3.744-3.835 14.837-6.595 26.07a309.144 309.144 0 0 0-1.547 6.586c3.566-.07 7.94-.139 12.045-.208-.807 3.19-1.682 6.517-2.422 9.707-.808 3.328-1.615 6.586-2.355 9.845ZM235.439 52h-21.467c2.019-7.419 3.836-14.976 6.46-26 2.692-11.024 4.576-18.581 6.124-26h21.467c-1.952 7.35-3.769 14.907-6.393 25.93-2.692 11.025-4.509 18.582-6.191 26.07ZM275.164 52h-34.186c2.087-7.419 3.971-14.976 6.595-26 2.692-11.024 4.509-18.72 5.989-26h32.302c10.498 0 15.948 5.547 13.593 14.837-1.278 5.27-3.432 7.766-8.479 9.43-1.346.485-2.961.762-4.778.97l-.134.347c1.278.139 2.355.347 3.162.624 5.451 1.733 6.528 6.379 4.98 12.827C291.92 48.603 286.806 52 275.164 52Zm-3.836-22.256c-1.48 0-3.23.07-5.114.139a506.42 506.42 0 0 0-2.356 10.192c1.885.138 3.5.138 5.048.138 3.162 0 4.912-1.109 5.72-4.576 1.076-4.437-.202-5.893-3.298-5.893Zm-3.028-8.528c1.615.07 3.163.07 4.509.07h.605c3.029-.07 4.778-1.387 5.653-4.993 1.009-4.16-.404-5.546-3.096-5.546-1.615 0-3.297 0-5.114.069-.74 2.912-1.615 6.587-2.557 10.4Z"/></svg>
