<?xml version="1.0" encoding="UTF-8" standalone="no"?>
<!DOCTYPE svg PUBLIC "-//W3C//DTD SVG 1.1//EN" "http://www.w3.org/Graphics/SVG/1.1/DTD/svg11.dtd">
<svg width="100%" height="100%" viewBox="0 0 60 60" version="1.1" xmlns="http://www.w3.org/2000/svg" xmlns:xlink="http://www.w3.org/1999/xlink" xml:space="preserve" xmlns:serif="http://www.serif.com/" style="fill-rule:evenodd;clip-rule:evenodd;stroke-linecap:round;stroke-linejoin:round;stroke-miterlimit:1.5;">
    <rect id="Artboard1" x="0" y="0" width="60" height="60" style="fill:none;"/>
    <g id="Artboard11" serif:id="Artboard1">
        <g transform="matrix(1,0,0,1,-0.264598,-0.0671828)">
            <g transform="matrix(1,0,0,1,-6,-5)">
                <circle cx="16" cy="15" r="7" style="fill:none;stroke:black;stroke-width:4.17px;"/>
            </g>
            <g transform="matrix(1,0,0,1,34.5292,-5)">
                <circle cx="16" cy="15" r="7" style="fill:none;stroke:black;stroke-width:4.17px;"/>
            </g>
            <g transform="matrix(1,0,0,1,14.2646,35.1344)">
                <circle cx="16" cy="15" r="7" style="fill:none;stroke:black;stroke-width:4.17px;"/>
            </g>
            <path d="M29.948,43.134L29.948,30" style="fill:none;stroke:black;stroke-width:3.13px;stroke-linecap:square;"/>
            <path d="M10,17L15,30L30,30" style="fill:none;stroke:black;stroke-width:3.13px;stroke-linecap:butt;"/>
            <g transform="matrix(-1,0,0,1,60,0)">
                <path d="M10,17L15,30L30,30" style="fill:none;stroke:black;stroke-width:3.13px;stroke-linecap:butt;"/>
            </g>
        </g>
    </g>
</svg>
